# xmcd
#
# Track frame offsets:
#	150
#	22240
#	41235
#	64370
#	81293
#	101115
#	123615
#	145563
#	165013
#	194160
#	216945
#
# Disc length: 3029 seconds
#
# Revision: 4
# Processed by: cddbd v1.5.2PL0 Copyright (c) Steve Scherf et al.
# Submitted via: AudioConverter v8.05 Copyright (c) D.R. Software
#
DISCID=a70bd30b
DTITLE=Annie Lennox - Diva
DYEAR=1992
DGENRE=Popular
TTITLE0=Why
TTITLE1=Walking On Broken Glass
TTITLE2=Precious
TTITLE3=Legend In My Living Room
TTITLE4=Cold
TTITLE5=Money Can't Buy It
TTITLE6=Little Bird
TTITLE7=Primitive
TTITLE8=Stay By Me
TTITLE9=The Gift
TTITLE10=Keep Young and Beautiful
EXTD=
EXTT0=
EXTT1=
EXTT2=
EXTT3=
EXTT4=
EXTT5=
EXTT6=
EXTT7=
EXTT8=
EXTT9=
EXTT10=
PLAYORDER=
